<?xml version="1.0" encoding="UTF-8"?>
<svg xmlns="http://www.w3.org/2000/svg" xmlns:xlink="http://www.w3.org/1999/xlink" width="409pt" height="418pt" viewBox="0 0 409 418" version="1.1">
<g id="surface1">
<path style=" stroke:none;fill-rule:evenodd;fill:rgb(20.799255%,20.399475%,20.799255%);fill-opacity:1;" d="M 110.179688 386.621094 C 94.488281 375.96875 69.289063 366.609375 80.019531 345.511719 L 69.21875 342.699219 C 54.378906 335.140625 39.621094 342.339844 24.941406 337.589844 L 23.78125 334.710938 C 30.121094 326.789063 36.53125 314.839844 38.898438 305.339844 L 39.621094 303.101563 L 44.019531 291.21875 L 44.300781 289.859375 L 44.660156 287.339844 C 45.019531 287.339844 45.019531 287.339844 45.019531 287.339844 L 99.167969 295.539063 C 108.601563 284.238281 84.339844 282.148438 126.890625 277.039063 C 127.75 263.289063 122.859375 265.738281 113.5 259.261719 L 113.78125 258.820313 C 111.621094 257.960938 109.898438 254.941406 109.898438 252.699219 C 110.691406 246.148438 116.378906 227.359375 125.089844 233.699219 C 123.070313 234.488281 108.460938 254.5 123.941406 260.339844 C 171.601563 228.578125 232.660156 292.378906 233.160156 294.03125 C 219.339844 308.5 196.511719 298.570313 184.421875 295.539063 C 185.5 302.53125 152.449219 300.578125 146.621094 299.941406 C 132.5 293.820313 127.679688 284.019531 125.738281 303.539063 C 136.679688 313.761719 156.910156 300.078125 151.578125 332.339844 C 193.851563 342.199219 224.589844 343.859375 264.480469 325.140625 C 264.480469 318.511719 249.578125 314.621094 248.28125 303.101563 C 245.621094 300.148438 225.378906 294.101563 234.960938 289.351563 L 236.398438 282.660156 C 234.601563 262.351563 80.949219 252.558594 126.671875 231.320313 C 126.671875 228.800781 132.789063 221.238281 135.238281 218.648438 L 139.988281 206.910156 C 143.378906 185.101563 163.679688 173.5 155.898438 156.300781 C 153.820313 144.78125 156.980469 132.898438 167.058594 121.378906 C 167.710938 121.089844 158.710938 141.96875 158.058594 151.328125 L 159.5 150.898438 L 163.898438 136.058594 C 173.691406 123.539063 185.5 117.269531 188.519531 102.300781 L 189.960938 100.929688 C 188.738281 111.730469 189.378906 108.78125 186.789063 115.980469 C 192.699219 122.460938 192.980469 132.609375 191.46875 142.621094 C 191.691406 142.898438 200.898438 125.699219 203.640625 121.660156 C 213.359375 120.078125 208.390625 102.148438 204 94.449219 C 212.140625 89.050781 216.460938 117.699219 216.238281 119.140625 L 222.71875 126.128906 L 227.398438 137.859375 C 229.78125 137.859375 228.839844 134.550781 230.28125 131.820313 C 233.878906 150.898438 234.378906 162.128906 222.289063 176.53125 L 223.800781 203.101563 C 225.601563 232.328125 250.21875 236.21875 248.28125 245.429688 C 270.820313 228.078125 307.03125 186.820313 310.558594 188.410156 C 302.929688 204.679688 274.058594 228.21875 285 249.101563 C 292.78125 256.878906 306.238281 261.339844 307.96875 272.140625 L 306.601563 273.660156 C 300.121094 273.660156 281.761719 265.378906 274.199219 263.5 C 264.480469 260.621094 257.28125 273.660156 248.28125 279.699219 L 247.921875 283.738281 C 264.910156 290.578125 264.839844 286.980469 271.320313 303.820313 L 270.960938 304.261719 L 279.601563 318.660156 C 296.300781 314.261719 264.339844 312.460938 280.679688 292.738281 C 303.5 280.210938 335.109375 285.25 359.878906 288.339844 L 369.601563 289.421875 C 369.960938 289.859375 369.960938 289.859375 369.960938 289.859375 L 371.398438 290.941406 C 371.398438 297.058594 372.121094 303.101563 377.449219 309.21875 L 378.171875 310.738281 L 392.710938 325.140625 C 393.070313 325.570313 400.988281 336.730469 397.320313 331.621094 C 388.320313 332.621094 385.511719 332.410156 370.320313 330.101563 C 362.328125 329.167969 356.210938 328.230469 348.359375 328.738281 C 351.820313 349.691406 322.941406 368.621094 307.320313 378.058594 C 246.261719 412.109375 171.671875 416.859375 110.179688 386.621094 "/>
<path style=" stroke:none;fill-rule:evenodd;fill:rgb(90.99884%,60.398865%,58.799744%);fill-opacity:1;" d="M 77.929688 162.851563 C 66.699219 156.21875 4.417969 128.71875 39.480469 107.121094 C 47.261719 94.660156 69.289063 79.828125 81.019531 70.898438 C 111.480469 44.980469 164.828125 19.640625 206.808594 19.640625 C 269.160156 19.640625 339.429688 56.789063 371.691406 110.71875 C 372.621094 115.039063 375.5 118.570313 377.300781 122.671875 C 381.550781 133.328125 339.5 159.96875 326.179688 160.539063 C 324.308594 155.359375 322.078125 157.589844 324.378906 157.160156 C 327.410156 150.539063 331.660156 150.25 326.691406 144.269531 C 316.390625 123.96875 255.980469 93.730469 239.570313 92.941406 L 224.660156 90.269531 L 203.28125 86.671875 C 200.179688 87.390625 192.769531 88.898438 190.25 87.320313 C 144.53125 94.378906 117.738281 111.730469 89.089844 149.238281 C 86.5 152.980469 81.019531 156.078125 82.679688 161.410156 C 81.820313 161.410156 80.949219 161.410156 80.089844 161.410156 C 80.019531 161.410156 79.941406 161.339844 79.800781 161.121094 C 79.582031 161.261719 78.21875 162.78125 77.929688 162.851563 "/>
<path style=" stroke:none;fill-rule:evenodd;fill:rgb(20.799255%,20.399475%,20.799255%);fill-opacity:1;" d="M 35.808594 184.378906 C 31.699219 181.28125 27.53125 178.179688 23.351563 175.019531 C 23.351563 174.730469 12.910156 159.75 11.898438 158.101563 C 9.53125 149.671875 1.390625 139.449219 1.390625 130.660156 C 11.898438 133.621094 22.269531 141.460938 32.78125 139.378906 C 30.621094 136.78125 28.460938 134.191406 26.230469 131.53125 C 21.839844 105.609375 64.96875 79.539063 83.109375 64.058594 C 136.96875 24.460938 196.011719 0.78125 262.75 24.179688 C 311.058594 37.28125 356.859375 76.089844 379.75 120.300781 C 379.75 138.21875 357.140625 142.261719 391.628906 146.859375 C 396.738281 146.648438 402.5 145.210938 406.75 148.378906 C 406.75 155 380.898438 175.589844 371.46875 176.820313 C 342.890625 195.679688 265.78125 144.199219 300.910156 128.578125 C 301.488281 128.070313 302.058594 127.570313 302.710938 127.058594 C 288.019531 113.171875 255.621094 97.539063 238.628906 95.101563 C 236.761719 94.378906 237.769531 94.089844 238.269531 92.21875 C 257.421875 92.21875 342.238281 136.570313 327.910156 154.5 C 325.679688 155.21875 325.460938 154.78125 325.03125 157.019531 C 325.609375 157.519531 326.179688 158.019531 326.828125 158.53125 C 344.691406 154.140625 372.050781 141.03125 376.511719 123.179688 C 364.78125 98.339844 352.390625 83 331.511719 65.859375 C 285.5 29.070313 226.179688 12.078125 167.421875 25.828125 C 136.320313 35.910156 115.511719 48.21875 87.359375 67.378906 C 73.539063 79.109375 28.179688 110.578125 30.980469 124.46875 C 33.359375 130.449219 65.039063 161.339844 81.890625 161.339844 C 81.601563 161.050781 82.460938 160.691406 82.101563 160.328125 C 81.960938 159.25 81.820313 158.171875 81.667969 157.019531 C 91.390625 146.859375 96.070313 136.058594 106.511719 126.78125 C 132.71875 101.789063 154.75 93.21875 189.019531 86.820313 C 189.460938 87.390625 189.53125 88.179688 189.671875 88.980469 C 188.519531 89.910156 182.398438 90.488281 180.671875 90.78125 C 154.820313 94.300781 117.960938 118.351563 100.390625 139.378906 C 128.539063 152.550781 105.578125 168.539063 87.5 177.179688 C 75.480469 182 48.769531 184.378906 35.808594 184.378906 "/>
<path style=" stroke:none;fill-rule:evenodd;fill:rgb(90.99884%,60.398865%,58.799744%);fill-opacity:1;" d="M 40.558594 180.78125 L 33.359375 175.378906 L 22.269531 159.460938 L 21.480469 158.53125 L 13.558594 144.128906 L 13.269531 141.460938 C 13.558594 141.460938 13.558594 141.460938 13.558594 141.460938 C 19.679688 142.980469 25.441406 144.128906 31.269531 144.128906 L 33.359375 144.128906 C 35.878906 143.699219 39.191406 144.128906 40.917969 146.859375 C 42.070313 150.179688 44.160156 153.128906 47.46875 155.21875 C 48.480469 155.578125 48.480469 155.578125 48.480469 155.578125 L 49.558594 157.660156 L 47.46875 157.660156 L 47.46875 158.820313 C 49.917969 160.980469 53.878906 159.460938 57.191406 159.898438 L 61.871094 163.058594 L 61.871094 164.859375 L 61.082031 164.21875 L 58.269531 164.859375 L 56.039063 164.578125 L 56.761719 166.660156 L 57.839844 167.101563 L 66.480469 167.101563 C 66.839844 167.53125 66.839844 167.53125 66.839844 167.53125 L 68.28125 169.328125 L 66.480469 169.621094 L 63.667969 170.261719 C 63.238281 170.699219 63.238281 170.699219 63.238281 170.699219 L 62.878906 172.5 L 65.039063 173.21875 L 67.269531 172.929688 L 74.039063 172.058594 L 77.351563 171.421875 C 85.558594 171.128906 93.550781 165.730469 101.761719 161.699219 C 102.550781 161.699219 102.550781 161.699219 102.550781 161.699219 L 102.191406 163.5 C 95.640625 168.179688 88.441406 172.058594 81.238281 175.378906 C 67.988281 181.5 54.667969 176.53125 41.640625 181.210938 L 40.558594 180.78125 "/>
<path style=" stroke:none;fill-rule:evenodd;fill:rgb(90.99884%,60.398865%,58.799744%);fill-opacity:1;" d="M 354.769531 178.621094 C 334.679688 173.859375 299.46875 163.570313 298.101563 138.300781 C 300.121094 132.96875 302.210938 132.609375 308.179688 131.820313 C 326.898438 149.019531 306.101563 133.539063 299.898438 135.78125 C 299.898438 144.199219 325.679688 172.058594 329.351563 164.578125 C 341.519531 159.679688 365.140625 149.460938 368.878906 144.128906 C 396.820313 152.980469 408.769531 147.578125 373.558594 170.699219 C 369.378906 172.929688 358.511719 179.839844 354.769531 178.621094 "/>
<path style=" stroke:none;fill-rule:evenodd;fill:rgb(90.99884%,60.398865%,58.799744%);fill-opacity:1;" d="M 145.609375 397.417969 L 139.851563 394.621094 C 130.851563 392.460938 122.28125 389.21875 113.640625 384.101563 L 110.328125 382.300781 L 99.238281 374.019531 L 89.449219 367.898438 L 81.53125 360.058594 C 78.648438 353.5 84.050781 347.460938 88.730469 340.898438 L 94.558594 334.417969 L 109.25 317.941406 L 117.238281 316.859375 C 117.53125 317.140625 117.53125 317.140625 117.53125 317.140625 L 117.53125 322.898438 L 123.648438 326.941406 C 129.839844 331.898438 137.761719 331.539063 144.53125 335.140625 L 180.960938 342.058594 L 196.148438 343.859375 L 196.871094 344.941406 L 197.949219 346.019531 C 198.238281 346.300781 198.238281 346.300781 198.238281 346.300781 L 200.039063 346.738281 C 200.46875 346.300781 200.46875 346.300781 200.46875 346.300781 C 200.761719 345.660156 200.761719 345.660156 200.761719 345.660156 L 202.269531 343.417969 C 202.558594 343.417969 202.558594 343.417969 202.558594 343.417969 L 205.078125 343.417969 C 214.371094 344.21875 223.371094 342.699219 232.800781 340.898438 L 239.28125 339.539063 L 253.679688 333.699219 L 255.769531 333.339844 L 258.359375 331.898438 L 264.769531 330.539063 L 269.449219 328.738281 C 271.96875 325.859375 274.199219 328.738281 276.71875 327.21875 C 277.371094 327.21875 277.371094 327.21875 277.371094 327.21875 C 284.570313 320.019531 294.71875 317.941406 303.359375 313.539063 L 308.398438 310.738281 C 308.761719 310.300781 308.761719 310.300781 308.761719 310.300781 L 311.28125 307.140625 C 311.28125 306.699219 311.28125 306.699219 311.28125 306.699219 L 310.199219 305.339844 L 304.371094 304.898438 C 302.570313 310.300781 296.449219 311.738281 292.558594 313.539063 L 291.121094 313.898438 L 289.96875 312.539063 L 288.601563 310.738281 C 288.601563 310.300781 288.601563 310.300781 288.601563 310.300781 C 288.171875 309.660156 288.171875 309.660156 288.171875 309.660156 L 291.121094 308.5 C 291.480469 308.941406 291.480469 308.941406 291.480469 308.941406 L 293.28125 308.941406 L 296.160156 308.5 L 300.480469 305.621094 L 301.558594 305.339844 L 305.449219 300.941406 L 307.320313 300.660156 C 319.851563 298.421875 327.121094 314.621094 334.679688 324.339844 L 339.71875 331.539063 L 339.71875 334.140625 L 340.800781 342.058594 C 340.800781 347.460938 333.601563 351.058594 328.851563 356.820313 L 324.53125 360.558594 C 283.339844 399.441406 194.710938 412.261719 145.609375 397.417969 "/>
<path style=" stroke:none;fill-rule:evenodd;fill:rgb(20.799255%,20.399475%,20.799255%);fill-opacity:1;" d="M 179.160156 399.660156 L 174.191406 398.5 C 173.761719 398.21875 173.761719 398.21875 173.761719 398.21875 C 173.039063 397.859375 173.039063 397.859375 173.039063 397.859375 L 172.75 396.058594 L 173.46875 392.820313 L 169.441406 388.417969 L 167.351563 384.101563 L 166.988281 382.300781 L 161.519531 373.019531 L 158.640625 372.660156 L 155.761719 382.019531 L 154.320313 390.660156 C 154.75 391.019531 154.75 391.019531 154.75 391.019531 C 155.039063 391.738281 155.039063 391.738281 155.039063 391.738281 L 155.039063 393.820313 L 153.671875 395.339844 L 147.191406 394.261719 C 146.761719 393.820313 146.761719 393.820313 146.761719 393.820313 L 144.960938 392.460938 C 144.960938 392.019531 144.960938 392.019531 144.960938 392.019531 L 147.839844 387.699219 L 148.988281 380.941406 L 150.789063 376.621094 L 152.160156 370.417969 L 155.46875 355.300781 L 155.46875 353.5 L 152.160156 351.417969 L 152.160156 349.898438 L 153.671875 348.820313 L 177.359375 351.058594 C 180.238281 352.859375 181.75 356.019531 180.671875 358.621094 L 179.519531 368.339844 L 176.351563 372.21875 L 173.46875 373.300781 L 171.238281 373.738281 C 170.949219 374.019531 170.949219 374.019531 170.949219 374.019531 L 170.519531 375.820313 L 171.238281 377.339844 L 172.75 378.417969 L 180.671875 391.300781 L 180.960938 394.898438 L 183.191406 397.417969 L 181.75 399.21875 L 179.949219 399.660156 L 179.160156 399.660156 "/>
<path style=" stroke:none;fill-rule:evenodd;fill:rgb(20.799255%,20.399475%,20.799255%);fill-opacity:1;" d="M 188.160156 398.21875 L 185.640625 397.859375 L 183.839844 396.058594 L 186.359375 392.460938 L 192.839844 376.261719 L 200.46875 357.820313 L 197.949219 356.019531 L 197.949219 354.660156 L 199.320313 353.21875 L 207.171875 352.859375 L 208.679688 355.019531 L 211.488281 361.417969 L 214.371094 366.539063 L 214.800781 369.058594 L 220.199219 380.941406 L 224.449219 387.417969 L 226.96875 392.460938 C 226.96875 392.820313 226.96875 392.820313 226.96875 392.820313 L 227.398438 394.621094 C 226.96875 394.898438 226.96875 394.898438 226.96875 394.898438 L 220.921875 396.699219 L 218.691406 394.898438 L 219.121094 393.820313 L 213.289063 380.941406 C 213 380.941406 213 380.941406 213 380.941406 L 197.949219 381.21875 C 197.949219 381.660156 197.949219 381.660156 197.949219 381.660156 L 193.988281 391.300781 L 193.558594 393.101563 C 193.988281 393.539063 193.988281 393.539063 193.988281 393.539063 L 194.351563 395.339844 L 192.191406 397.859375 L 188.949219 398.21875 L 188.160156 398.21875 "/>
<path style=" stroke:none;fill-rule:evenodd;fill:rgb(20.799255%,20.399475%,20.799255%);fill-opacity:1;" d="M 247.199219 392.460938 L 246.121094 392.019531 C 246.121094 391.738281 246.121094 391.738281 246.121094 391.738281 L 249.71875 385.261719 L 251.449219 385.261719 L 250.800781 377.621094 L 249.359375 375.820313 L 247.921875 371.941406 L 247.558594 370.140625 L 246.121094 367.621094 C 242.449219 362.941406 237.121094 361.859375 232.800781 358.621094 L 227.691406 357.539063 L 225.171875 358.621094 L 223.371094 358.621094 L 221.570313 356.820313 C 221.570313 354.21875 224.878906 353.5 226.25 352.417969 L 233.878906 349.898438 L 235.25 349.621094 L 237.769531 349.261719 L 239.570313 350.621094 C 239.570313 351.058594 239.570313 351.058594 239.570313 351.058594 L 237.769531 355.019531 L 246.769531 360.417969 C 247.199219 360.417969 247.199219 360.417969 247.199219 360.417969 L 248.28125 357.539063 L 249.359375 355.300781 L 249.71875 351.699219 L 248.28125 351.699219 C 247.921875 351.417969 247.921875 351.417969 247.921875 351.417969 L 246.121094 350.339844 L 246.121094 348.101563 L 249 345.660156 L 256.558594 342.417969 C 256.851563 342.417969 256.851563 342.417969 256.851563 342.417969 L 259.800781 343.417969 L 259.800781 345.660156 L 256.199219 349.261719 L 252.960938 360.417969 C 252.601563 364.738281 253.320313 369.058594 256.558594 373.300781 L 259.078125 380.941406 C 259.078125 381.21875 259.078125 381.21875 259.078125 381.21875 C 259.371094 382.019531 259.371094 382.019531 259.371094 382.019531 L 262.320313 380.941406 L 265.199219 380.5 L 267.359375 382.300781 L 267.359375 384.101563 L 256.851563 390.21875 L 253.320313 390.660156 L 252.171875 391.300781 L 250.078125 391.738281 L 247.921875 392.820313 L 247.199219 392.460938 "/>
<path style=" stroke:none;fill-rule:evenodd;fill:rgb(20.799255%,20.399475%,20.799255%);fill-opacity:1;" d="M 129.550781 387.417969 L 124.148438 384.539063 L 121.269531 382.300781 C 121.269531 382.019531 121.269531 382.019531 121.269531 382.019531 C 121.558594 380.941406 121.558594 380.941406 121.558594 380.941406 L 124.148438 379.417969 C 127.320313 377.621094 127.75 374.460938 129.550781 372.21875 L 130.269531 370.140625 L 140.640625 352.417969 L 142.148438 348.820313 C 142.148438 348.101563 142.148438 348.101563 142.148438 348.101563 L 140.351563 344.941406 L 141.070313 343.140625 C 144.238281 341.339844 147.191406 342.058594 150.789063 344.21875 L 152.160156 347.820313 L 148.269531 350.339844 L 141.070313 362.941406 L 135.960938 372.21875 L 135.238281 375.101563 C 132.789063 378.417969 131.351563 380.941406 132.789063 384.101563 C 133.148438 384.820313 133.148438 384.820313 133.148438 384.820313 L 133.441406 386.621094 L 132.359375 387.699219 L 130.269531 387.699219 L 129.550781 387.417969 "/>
<path style=" stroke:none;fill-rule:evenodd;fill:rgb(20.799255%,20.399475%,20.799255%);fill-opacity:1;" d="M 274.558594 381.660156 L 274.199219 379.859375 C 277.800781 373.019531 275.28125 366.820313 276.359375 360.058594 C 277.800781 354.21875 277.078125 348.820313 277.371094 343.417969 L 272.761719 341.621094 L 271.96875 340.621094 L 271.96875 339.101563 C 275.28125 335.941406 279.601563 333.699219 283.558594 332.339844 L 287.878906 331.539063 L 288.960938 332.621094 L 288.960938 334.859375 L 287.878906 336.21875 L 294 343.417969 L 299.398438 349.898438 L 307.679688 357.539063 L 309.121094 358.621094 L 311.28125 358.261719 C 311.570313 358.261719 311.570313 358.261719 311.570313 358.261719 L 315.601563 358.621094 L 316.320313 361.417969 L 304.800781 370.417969 L 302.28125 368.621094 L 302.28125 365.820313 L 304.371094 363.21875 L 298.320313 356.460938 L 297.171875 356.019531 L 295.800781 357.101563 L 293.570313 357.539063 L 288.171875 361.140625 L 282.121094 365.019531 L 281.761719 374.019531 L 283.199219 375.101563 L 285 376.261719 L 285 378.058594 C 283.851563 380.21875 281.398438 380.5 279.960938 380.941406 L 278.449219 381.660156 L 275.28125 382.019531 L 274.558594 381.660156 "/>
<path style=" stroke:none;fill-rule:evenodd;fill:rgb(90.99884%,60.398865%,58.799744%);fill-opacity:1;" d="M 202.988281 375.539063 L 201.839844 375.539063 L 201.191406 371.5 L 203.640625 366.539063 L 204.070313 365.460938 C 204.359375 365.019531 204.359375 365.019531 204.359375 365.019531 C 204.71875 364.300781 204.71875 364.300781 204.71875 364.300781 L 207.601563 365.820313 L 210.480469 374.460938 C 210.121094 374.820313 210.121094 374.820313 210.121094 374.820313 L 203.640625 375.820313 L 202.988281 375.539063 "/>
<path style=" stroke:none;fill-rule:evenodd;fill:rgb(20.799255%,20.399475%,20.799255%);fill-opacity:1;" d="M 102.191406 371.941406 L 95.640625 369.699219 L 94.269531 368.339844 L 94.558594 365.820313 L 96.359375 364.738281 L 98.160156 364.300781 C 98.589844 364.019531 98.589844 364.019531 98.589844 364.019531 L 103.988281 355.300781 L 108.671875 348.539063 L 110.761719 345.660156 L 115.871094 335.140625 L 116.160156 333.058594 L 114.359375 330.820313 C 114.359375 330.101563 114.359375 330.101563 114.359375 330.101563 C 114.71875 329.460938 114.71875 329.460938 114.71875 329.460938 L 118.320313 328.300781 L 132.789063 337.019531 L 135.238281 339.539063 C 135.960938 346.019531 131.640625 353.21875 125.160156 358.898438 L 116.949219 357.539063 L 115.148438 356.019531 L 112.988281 354.660156 L 111.839844 355.019531 C 108.671875 357.539063 107.949219 361.417969 105.359375 364.738281 L 104.351563 370.417969 L 102.839844 372.21875 L 102.191406 371.941406 "/>
<path style=" stroke:none;fill-rule:evenodd;fill:rgb(90.99884%,60.398865%,58.799744%);fill-opacity:1;" d="M 169.148438 368.621094 L 161.949219 367.898438 C 161.519531 367.621094 161.519531 367.621094 161.519531 367.621094 L 159.789063 366.539063 L 162.238281 354.660156 L 171.960938 353.941406 C 176.640625 357.101563 173.039063 361.859375 173.761719 365.820313 L 171.671875 368.621094 L 169.871094 369.058594 L 169.148438 368.621094 "/>
<path style=" stroke:none;fill-rule:evenodd;fill:rgb(90.99884%,60.398865%,58.799744%);fill-opacity:1;" d="M 283.199219 356.820313 L 283.851563 349.261719 L 283.851563 343.417969 C 284.28125 343.140625 284.28125 343.140625 284.28125 343.140625 L 290.398438 347.820313 L 292.851563 350.621094 C 292.851563 351.058594 292.851563 351.058594 292.851563 351.058594 L 286.800781 355.019531 L 283.851563 357.101563 L 283.199219 356.820313 "/>
<path style=" stroke:none;fill-rule:evenodd;fill:rgb(90.99884%,60.398865%,58.799744%);fill-opacity:1;" d="M 121.558594 353.5 L 115.871094 349.621094 L 116.589844 346.738281 L 120.191406 338.460938 L 121.558594 337.019531 L 123.359375 336.660156 C 123.71875 337.019531 123.71875 337.019531 123.71875 337.019531 L 128.46875 340.898438 C 128.46875 341.339844 128.46875 341.339844 128.46875 341.339844 C 128.46875 345.660156 126.238281 349.621094 122.640625 353.5 L 121.558594 353.5 "/>
<path style=" stroke:none;fill-rule:evenodd;fill:rgb(90.99884%,60.398865%,58.799744%);fill-opacity:1;" d="M 76.988281 338.460938 C 70.441406 338.460938 63.820313 332.261719 56.398438 333.699219 L 40.988281 334.859375 C 37.679688 334.929688 34.300781 335 30.910156 335.070313 C 30.910156 329.53125 47.761719 297.988281 47.761719 293.460938 C 52.511719 290.648438 88.011719 299.429688 91.75 300.941406 L 92.039063 302.738281 L 89.589844 310.300781 C 89.949219 310.738281 89.949219 310.738281 89.949219 310.738281 C 90.53125 312.179688 94.488281 313.898438 96.070313 314.621094 C 97.371094 316.570313 98.019531 323.699219 92.46875 320.019531 C 86.859375 320.960938 78.71875 338.460938 76.988281 338.460938 "/>
<path style=" stroke:none;fill-rule:evenodd;fill:rgb(20.799255%,20.399475%,20.799255%);fill-opacity:1;" d="M 157.269531 287.339844 L 157.269531 285.101563 L 158.351563 283.738281 L 161.519531 283.300781 C 161.949219 283.738281 161.949219 283.738281 161.949219 283.738281 L 162.238281 285.539063 C 161.949219 285.820313 161.949219 285.820313 161.949219 285.820313 L 157.988281 287.339844 L 157.269531 287.339844 "/>
<path style=" stroke:none;fill-rule:evenodd;fill:rgb(20.799255%,20.399475%,20.799255%);fill-opacity:1;" d="M 186.789063 267.101563 L 187.148438 263.140625 L 188.519531 261.339844 L 190.75 260.621094 L 192.191406 260.339844 L 193.558594 262.421875 L 192.839844 264.21875 L 190.320313 266.738281 L 187.441406 267.101563 L 186.789063 267.101563 "/>
<path style=" stroke:none;fill-rule:evenodd;fill:rgb(20.799255%,20.399475%,20.799255%);fill-opacity:1;" d="M 198.960938 265.738281 L 198.238281 263.5 L 200.46875 261.058594 L 203.640625 261.058594 C 204.070313 261.339844 204.070313 261.339844 204.070313 261.339844 L 203.351563 264.941406 L 202.269531 265.738281 L 198.960938 265.738281 "/>
<path style=" stroke:none;fill-rule:evenodd;fill:rgb(100%,100%,100%);fill-opacity:1;" d="M 164.46875 236.140625 L 162.960938 235.859375 L 164.039063 225.339844 L 178.441406 184.378906 L 179.519531 181.929688 L 180.671875 181.929688 C 182.761719 190.210938 180.960938 199.929688 182.46875 208.5 L 182.039063 214.261719 L 184.558594 234.058594 C 184.269531 234.339844 184.269531 234.339844 184.269531 234.339844 L 183.191406 235.859375 L 169.441406 235.859375 L 165.191406 236.140625 L 164.46875 236.140625 "/>
<path style=" stroke:none;fill-rule:evenodd;fill:rgb(100%,100%,100%);fill-opacity:1;" d="M 204.070313 235.859375 L 191.46875 235.859375 C 191.039063 235.421875 191.039063 235.421875 191.039063 235.421875 C 189.671875 220.300781 198.238281 205.980469 200.46875 190.929688 L 201.550781 191.21875 L 202.558594 204.898438 L 204.71875 230.019531 L 206.449219 232.261719 C 206.878906 232.261719 206.878906 232.261719 206.878906 232.261719 L 208.96875 232.539063 L 210.769531 230.019531 L 211.199219 223.539063 L 217.96875 195.609375 L 219.480469 194.101563 C 220.488281 206.410156 222 219.941406 221.28125 232.539063 L 220.199219 234.699219 L 204.71875 235.859375 L 204.070313 235.859375 "/>
<path style=" stroke:none;fill-rule:evenodd;fill:rgb(100%,100%,100%);fill-opacity:1;" d="M 134.949219 235.421875 L 135.238281 227.5 L 137.46875 218.941406 C 141.359375 205.621094 145.75 192.730469 152.519531 179.410156 C 152.949219 178.621094 152.949219 178.621094 152.949219 178.621094 C 153.671875 178.328125 153.671875 178.328125 153.671875 178.328125 L 154.320313 180.421875 L 154.75 185.53125 L 155.039063 186.898438 C 153.238281 202.019531 153.960938 217.140625 153.671875 232.261719 C 153.238281 232.898438 153.238281 232.898438 153.238281 232.898438 L 152.160156 234.339844 L 135.671875 235.859375 L 134.949219 235.421875 "/>
<path style=" stroke:none;fill-rule:evenodd;fill:rgb(32.899475%,63.499451%,45.899963%);fill-opacity:1;" d="M 191.46875 143.261719 C 190.539063 133.898438 192.480469 122.738281 183.410156 116.621094 C 190.03125 110.578125 192.050781 85.808594 208.25 97.980469 C 214.441406 126.988281 205.300781 112.738281 195.71875 135.488281 L 192.839844 139.660156 L 192.839844 143.550781 L 192.191406 143.550781 L 191.46875 143.261719 "/>
<path style=" stroke:none;fill-rule:evenodd;fill:rgb(32.899475%,63.499451%,45.899963%);fill-opacity:1;" d="M 208.96875 298.351563 C 203.058594 297.199219 195.859375 295.898438 190.820313 292.738281 L 190.179688 289.859375 C 164.980469 290.71875 132.859375 311.101563 131.859375 268.261719 C 143.230469 260.261719 156.121094 262.859375 169.300781 263.941406 C 169.300781 263.140625 169.300781 262.421875 169.300781 261.699219 C 163.539063 256.878906 128.621094 257.53125 121.78125 259.898438 C 120.339844 259.898438 115.078125 256.738281 113.5 255.941406 C 113.210938 248.378906 114.21875 233.121094 124.730469 233.121094 L 128.261719 237.21875 C 124.941406 240.539063 123.429688 239.171875 122.058594 244.140625 C 153.601563 234.921875 187.441406 241.46875 220.199219 239.460938 L 220.488281 240.101563 C 224.378906 240.101563 228.261719 241.46875 232.078125 242.339844 C 232.078125 241.691406 232.660156 240.25 232.800781 239.460938 L 226.679688 234.699219 L 227.398438 227.5 C 237.480469 232.898438 244.75 238.589844 246.769531 250.898438 C 235.609375 262.210938 224.660156 261.058594 209.691406 261.058594 C 203.5 267.609375 238.199219 265.878906 241.371094 270.058594 C 241.800781 277.261719 236.179688 286.398438 232.800781 293.019531 C 226.179688 294.820313 215.378906 297.921875 208.96875 298.351563 "/>
<path style=" stroke:none;fill-rule:evenodd;fill:rgb(32.899475%,63.499451%,45.899963%);fill-opacity:1;" d="M 251.589844 258.820313 C 251.019531 250.039063 252.460938 246.578125 261.171875 244.421875 L 263.109375 248.890625 L 268.800781 259.539063 C 260.738281 263.578125 261.671875 263 254.179688 262.421875 L 253.679688 262.421875 L 251.589844 258.820313 "/>
<path style=" stroke:none;fill-rule:evenodd;fill:rgb(32.899475%,63.499451%,45.899963%);fill-opacity:1;" d="M 159.359375 214.261719 L 158.640625 204.898438 L 160.871094 193.019531 C 161.949219 190.5 165.550781 187.980469 165.191406 185.53125 L 166.269531 183.011719 L 167.640625 178.621094 L 168.070313 176.53125 L 172.320313 172.929688 L 177.070313 171.78125 C 180.960938 169.328125 185.640625 163.929688 187.441406 160.328125 L 188.519531 158.820313 L 189.671875 158.820313 L 189.238281 162.128906 L 191.039063 172.058594 L 194.351563 174.730469 L 197.519531 178.328125 L 197.949219 181.929688 L 194.640625 184.808594 C 194.351563 185.101563 194.351563 185.101563 194.351563 185.101563 L 188.519531 208.5 L 187.148438 209.21875 C 186.070313 206.410156 186.070313 203.53125 186.359375 200.578125 L 186.359375 198.421875 C 186.359375 198.128906 186.359375 198.128906 186.359375 198.128906 L 186.789063 190.210938 L 186.359375 183.011719 L 186.070313 181.5 L 184.558594 173.578125 C 184.269531 173.21875 184.269531 173.21875 184.269531 173.21875 L 180.238281 172.058594 L 177.359375 175.660156 L 177.070313 177.898438 L 175.988281 181.210938 L 174.191406 182.578125 L 170.949219 183.011719 L 166.988281 192.300781 C 165.550781 199.5 161.160156 207.128906 160.871094 214.261719 L 159.359375 214.261719 "/>
<path style=" stroke:none;fill-rule:evenodd;fill:rgb(32.899475%,63.499451%,45.899963%);fill-opacity:1;" d="M 207.890625 195.179688 C 206.449219 193.019531 205.800781 190.210938 206.449219 187.621094 L 205.078125 180.421875 C 205.371094 180.128906 205.371094 180.128906 205.371094 180.128906 L 207.601563 178.621094 L 210.480469 179.410156 C 210.769531 179.699219 210.769531 179.699219 210.769531 179.699219 C 213.289063 181.5 213.289063 183.011719 213.71875 184.808594 L 211.921875 186.179688 L 209.691406 187.621094 L 208.96875 195.609375 L 207.890625 195.179688 "/>
<path style=" stroke:none;fill-rule:evenodd;fill:rgb(100%,100%,100%);fill-opacity:1;" d="M 160.148438 183.730469 C 159.359375 183.300781 159.359375 183.300781 159.359375 183.300781 C 159.070313 182.21875 159.070313 182.21875 159.070313 182.21875 L 159.789063 172.5 C 160.148438 172.5 160.148438 172.5 160.148438 172.5 L 164.46875 175.660156 L 160.871094 183.730469 L 160.148438 183.730469 "/>
<path style=" stroke:none;fill-rule:evenodd;fill:rgb(100%,100%,100%);fill-opacity:1;" d="M 204.359375 174.730469 L 200.039063 172.5 L 195.359375 167.820313 L 194.640625 162.128906 C 196.148438 149.820313 194.640625 137.578125 204.71875 125.261719 C 209.398438 123.898438 213 122.820313 217.25 126.78125 L 220.488281 130.378906 L 222.71875 140.53125 L 222.71875 162.421875 L 226.96875 156.300781 C 227.691406 156.300781 227.691406 156.300781 227.691406 156.300781 C 228.769531 156.300781 228.769531 156.300781 228.769531 156.300781 C 228.769531 161.699219 228.121094 167.101563 221.570313 172.058594 C 220.921875 172.5 220.921875 172.5 220.921875 172.5 L 218.691406 172.929688 L 221.570313 164.859375 L 217.679688 168.179688 L 214.800781 170.699219 L 206.878906 174.300781 L 205.078125 174.730469 L 204.359375 174.730469 "/>
<path style=" stroke:none;fill-rule:evenodd;fill:rgb(100%,100%,100%);fill-opacity:1;" d="M 170.949219 167.820313 C 165.191406 167.53125 162.960938 160.328125 161.160156 155.859375 C 160.871094 144.78125 162.960938 130.660156 176.351563 122.53125 L 179.519531 121.019531 C 179.949219 121.019531 179.949219 121.019531 179.949219 121.019531 L 182.039063 120.730469 C 184.988281 122.101563 184.988281 124.980469 185.640625 127.058594 C 187.148438 140.101563 189.960938 154.058594 178.148438 165.730469 L 171.671875 168.179688 L 170.949219 167.820313 "/>
<path style=" stroke:none;fill-rule:evenodd;fill:rgb(20.799255%,20.399475%,20.799255%);fill-opacity:1;" d="M 175.269531 155.21875 L 173.46875 153.421875 L 174.839844 148.660156 C 175.269531 148.378906 175.269531 148.378906 175.269531 148.378906 L 176.640625 146.21875 L 179.519531 145.929688 C 179.949219 146.21875 179.949219 146.21875 179.949219 146.21875 L 180.671875 152.261719 L 175.988281 155.578125 L 175.269531 155.21875 "/>
<path style=" stroke:none;fill-rule:evenodd;fill:rgb(90.99884%,60.398865%,58.799744%);fill-opacity:1;" d="M 320.570313 153.421875 C 319.421875 151.328125 313.511719 141.320313 313.148438 138.148438 C 315.671875 135.199219 321 149.53125 321.71875 151.328125 L 321.359375 153.421875 L 320.570313 153.421875 "/>
<path style=" stroke:none;fill-rule:evenodd;fill:rgb(20.799255%,20.399475%,20.799255%);fill-opacity:1;" d="M 203.351563 149.101563 L 202.269531 149.101563 C 201.839844 148.660156 201.839844 148.660156 201.839844 148.660156 C 200.761719 145.929688 201.550781 143.261719 203.351563 140.820313 L 206.089844 140.53125 L 207.890625 141.898438 C 208.96875 144.128906 207.601563 146.21875 205.800781 148.378906 L 204.070313 149.53125 L 203.351563 149.101563 "/>
<path style=" stroke:none;fill-rule:evenodd;fill:rgb(93.299866%,20.399475%,19.999695%);fill-opacity:1;" d="M 30.839844 144.421875 L 34.082031 144.128906 L 31.558594 144.421875 L 30.839844 144.421875 "/>
<path style=" stroke:none;fill-rule:evenodd;fill:rgb(20.799255%,20.399475%,20.799255%);fill-opacity:1;" d="M 87.070313 140.820313 L 85.558594 140.820313 C 83.46875 135.78125 77.640625 132.179688 73.320313 129.300781 C 67.269531 123.898438 61.441406 115.621094 54.667969 113.101563 L 59.640625 103.660156 L 61.082031 103.660156 C 61.441406 104.101563 61.441406 104.101563 61.441406 104.101563 C 61.871094 104.820313 61.871094 104.820313 61.871094 104.820313 L 61.441406 109.058594 L 71.589844 118.058594 L 72.238281 119.578125 L 88.148438 131.820313 L 92.46875 132.179688 C 92.761719 132.460938 92.761719 132.460938 92.761719 132.460938 L 93.191406 134.261719 L 87.71875 141.179688 L 87.070313 140.820313 "/>
<path style=" stroke:none;fill-rule:evenodd;fill:rgb(20.799255%,20.399475%,20.799255%);fill-opacity:1;" d="M 316.320313 118.351563 C 315.53125 114.101563 320.570313 109.5 323.878906 106.328125 L 327.121094 102.300781 L 327.121094 100.5 C 327.480469 100.058594 327.480469 100.058594 327.480469 100.058594 L 328.988281 99.921875 C 331.800781 97.828125 335.761719 92.578125 338.570313 92.21875 C 342.171875 90.78125 344.761719 91.929688 348 94.378906 L 351.960938 99.128906 C 352.898438 100.058594 353.828125 101 354.769531 101.859375 C 356.140625 104.53125 356.058594 106.691406 354.480469 108.78125 C 353.621094 109.640625 352.75 110.5 351.960938 111.300781 L 346.558594 116.699219 L 346.558594 119.21875 C 346.199219 119.578125 343.820313 119.648438 343.820313 119.648438 L 341.878906 121.660156 C 338.5 123.96875 333.738281 131.738281 327.480469 129.941406 C 325.179688 129.441406 316.75 123.539063 316.320313 118.351563 "/>
<path style=" stroke:none;fill-rule:evenodd;fill:rgb(20.799255%,20.399475%,20.799255%);fill-opacity:1;" d="M 98.589844 126.128906 L 97.441406 124.621094 C 97.148438 124.328125 97.148438 124.328125 97.148438 124.328125 L 95.351563 122.820313 L 80.949219 108.78125 C 78.71875 104.820313 75.550781 101.859375 71.589844 99.78125 L 77.351563 91.929688 L 90.667969 97.621094 L 110.761719 105.898438 C 103.558594 98.261719 94.988281 86.820313 86.640625 82.058594 L 84.839844 79.621094 L 86.351563 78.179688 L 88.871094 76.019531 L 91.75 75.730469 L 94.988281 79.621094 C 102.550781 83.21875 105.71875 92.21875 113.351563 97.328125 L 115.871094 100.929688 L 117.960938 103.660156 L 119.761719 106.980469 C 119.761719 107.261719 119.761719 107.261719 119.761719 107.261719 L 120.191406 109.5 L 116.949219 114.179688 L 115.871094 115.980469 C 115.441406 115.980469 115.441406 115.980469 115.441406 115.980469 C 106.148438 113.53125 97.148438 106.621094 87.71875 104.101563 L 90.238281 107.261719 L 91.75 109.058594 L 92.46875 110.21875 L 99.960938 117.421875 C 100.320313 117.421875 100.320313 117.421875 100.320313 117.421875 L 103.558594 118.058594 C 103.988281 118.5 103.988281 118.5 103.988281 118.5 L 105.359375 119.578125 C 105.71875 121.660156 102.839844 124.980469 100.75 125.699219 C 99.667969 126.128906 99.667969 126.128906 99.667969 126.128906 L 98.589844 126.128906 "/>
<path style=" stroke:none;fill-rule:evenodd;fill:rgb(90.99884%,60.398865%,58.799744%);fill-opacity:1;" d="M 322.660156 118.5 L 322.371094 115.980469 L 326.328125 110.429688 L 330.789063 105.898438 C 331.441406 106.109375 333.238281 105.609375 333.238281 105.609375 C 333.460938 104.890625 333.238281 103.808594 332.878906 103.160156 C 334.25 101.5 336.480469 98.261719 340.078125 96.179688 C 340.800781 95.820313 340.800781 95.820313 340.800781 95.820313 C 341.449219 95.53125 341.449219 95.53125 341.449219 95.53125 L 344.761719 97.328125 L 346.199219 99.128906 L 348.71875 101.859375 C 350.019531 103.589844 350.878906 104.738281 349.371094 106.621094 L 347.28125 108.78125 L 338.570313 115.980469 L 332.160156 123.179688 C 331.441406 123.820313 330.859375 124.691406 330 124.980469 C 326.398438 123.320313 326.109375 122.960938 322.660156 118.5 "/>
<path style=" stroke:none;fill-rule:evenodd;fill:rgb(20.799255%,20.399475%,20.799255%);fill-opacity:1;" d="M 304.800781 113.820313 L 298.96875 109.058594 L 298.679688 106.621094 L 300.121094 100.929688 L 302.570313 80.261719 L 301.558594 80.261719 L 289.679688 95.53125 L 288.960938 98.261719 C 288.601563 98.699219 288.601563 98.699219 288.601563 98.699219 L 287.160156 100.929688 C 284.28125 101.21875 281.398438 99.421875 278.449219 96.179688 C 278.160156 95.53125 278.160156 95.53125 278.160156 95.53125 C 278.449219 94.378906 278.449219 94.378906 278.449219 94.378906 L 284.28125 93.730469 C 290.761719 86.820313 295.078125 80.261719 300.121094 73.5 C 303 70.980469 303.359375 68.53125 304.078125 65.859375 C 304.371094 64.929688 304.371094 64.929688 304.371094 64.929688 L 307.679688 64.058594 L 312.359375 68.101563 L 312.71875 71.699219 L 310.199219 74.859375 C 309.480469 82.5 307.320313 88.980469 307.679688 96.179688 C 313.371094 92.21875 316.679688 85.019531 321.359375 79.621094 L 322.078125 77.101563 L 323.878906 74.859375 L 328.558594 76.019531 C 328.851563 76.378906 328.851563 76.378906 328.851563 76.378906 L 330.359375 78.179688 L 332.449219 80.699219 L 332.878906 81.78125 C 332.449219 82.058594 332.449219 82.058594 332.449219 82.058594 C 332.160156 83.21875 332.160156 83.21875 332.160156 83.21875 L 326.761719 81.78125 L 325.320313 82.058594 L 315.171875 96.460938 L 307.96875 108.128906 L 307.679688 112.660156 L 305.449219 114.179688 L 304.800781 113.820313 "/>
<path style=" stroke:none;fill-rule:evenodd;fill:rgb(20.799255%,20.399475%,20.799255%);fill-opacity:1;" d="M 219.121094 111.730469 L 221.421875 106.621094 L 221.351563 105.101563 C 219.839844 103.589844 217.96875 102.871094 216.019531 100.929688 L 216.019531 99.128906 L 219.121094 96.179688 L 215.230469 92.859375 C 215.230469 87.25 222.71875 84.300781 226.679688 81.421875 C 211.988281 82.78125 210.910156 81.699219 205.941406 95.820313 C 203.78125 95.820313 200.898438 95.019531 198.820313 94.660156 L 198.378906 93.730469 C 205.578125 85.160156 209.621094 77.101563 224.089844 77.101563 C 221.78125 73.78125 221.140625 70.828125 218.828125 67.660156 C 219.410156 67.160156 219.980469 66.300781 220.488281 65.578125 C 221.5 65.578125 223.078125 65.070313 224.089844 64.929688 C 224.949219 65.648438 226.390625 69.101563 226.96875 70.328125 C 236.109375 85.160156 237.980469 61.109375 238.199219 57.300781 C 233.878906 54.128906 229.488281 56.859375 225.171875 51.898438 C 226.460938 32.378906 239.5 28.640625 250.800781 45.421875 C 250.148438 45.921875 249.789063 46.570313 249.359375 47.21875 L 243.960938 47.21875 C 243.960938 37.058594 231 35.480469 231 49.378906 C 254.761719 56.859375 241.078125 58.808594 241.078125 76.660156 L 247.199219 78.898438 L 249.359375 80.699219 L 247.558594 85.019531 C 241.300781 85.808594 225.019531 82.929688 223.371094 91.5 C 225.890625 93.078125 229.488281 93.941406 229.488281 96.898438 C 223.441406 101.070313 225.378906 101.21875 224.449219 109.5 C 224.089844 109.929688 224.089844 109.929688 224.089844 109.929688 L 219.769531 111.730469 L 219.121094 111.730469 "/>
<path style=" stroke:none;fill-rule:evenodd;fill:rgb(20.799255%,20.399475%,20.799255%);fill-opacity:1;" d="M 136.75 97.980469 C 135.960938 97.621094 135.960938 97.621094 135.960938 97.621094 L 136.320313 92.21875 L 130.558594 81.421875 L 130.269531 79.328125 L 126.238281 71.699219 L 125.949219 69.460938 L 124.148438 66.300781 L 123.71875 64.5 L 121.558594 59.820313 C 121.269531 59.53125 121.269531 59.53125 121.269531 59.53125 L 119.039063 58.378906 C 118.75 58.660156 118.75 58.660156 118.75 58.660156 L 116.949219 59.101563 C 116.589844 58.660156 116.589844 58.660156 116.589844 58.660156 L 120.839844 52.980469 L 126.671875 52.980469 C 126.671875 53.261719 126.671875 53.261719 126.671875 53.261719 C 125.949219 59.101563 130.269531 64.5 133.441406 69.898438 L 142.148438 67.378906 C 142.441406 67.019531 142.441406 67.019531 142.441406 67.019531 L 142.871094 64.929688 L 141.070313 59.820313 L 136.75 52.621094 C 136.75 52.328125 136.75 52.328125 136.75 52.328125 C 136.320313 50.101563 138.550781 48.730469 139.988281 48.300781 C 140.640625 47.859375 140.640625 47.859375 140.640625 47.859375 C 141.359375 48.300781 141.359375 48.300781 141.359375 48.300781 L 148.558594 63.128906 L 159.070313 87.179688 L 157.269531 88.621094 L 155.039063 88.980469 L 153.960938 89.261719 L 151.441406 85.019531 L 151.148438 82.929688 L 144.671875 73.5 L 137.039063 74.859375 L 136.320313 78.460938 L 143.519531 90.78125 L 143.160156 94.660156 L 140.351563 97.621094 L 137.46875 97.980469 L 136.75 97.980469 "/>
<path style=" stroke:none;fill-rule:evenodd;fill:rgb(20.799255%,20.399475%,20.799255%);fill-opacity:1;" d="M 275.28125 92.21875 L 263.761719 87.898438 L 259.371094 83.578125 C 259.371094 79.328125 260.878906 74.859375 263.761719 70.328125 L 268.800781 60.898438 L 269.449219 58.378906 L 276.359375 51.179688 C 282.121094 50.101563 288.601563 52.328125 293.570313 56.859375 L 293.570313 60.179688 L 288.960938 61.328125 C 288.601563 60.898438 288.601563 60.898438 288.601563 60.898438 L 287.878906 57.730469 L 279.601563 54.78125 L 276.359375 57.730469 L 270.171875 70.328125 L 266.28125 79.328125 C 266.28125 82.5 269.878906 85.660156 272.398438 86.101563 C 273.480469 86.101563 273.480469 86.101563 273.480469 86.101563 L 275.570313 86.53125 C 276 86.101563 276 86.101563 276 86.101563 C 276.71875 85.660156 276.71875 85.660156 276.71875 85.660156 C 278.449219 83.21875 281.398438 80.261719 281.398438 77.820313 L 279.960938 76.019531 L 273.769531 76.019531 L 273.121094 73.929688 C 273.480469 73.5 273.480469 73.5 273.480469 73.5 L 278.449219 70.328125 C 278.878906 70.328125 278.878906 70.328125 278.878906 70.328125 L 283.851563 72.128906 L 288.601563 76.378906 L 282.121094 87.898438 L 278.878906 92.21875 C 278.449219 92.21875 278.449219 92.21875 278.449219 92.21875 L 275.28125 92.21875 "/>
<path style=" stroke:none;fill-rule:evenodd;fill:rgb(20.799255%,20.399475%,20.799255%);fill-opacity:1;" d="M 115.441406 87.179688 C 107.019531 84.300781 114.578125 66.578125 122.640625 76.378906 C 125.519531 79.539063 123.140625 82.710938 122.058594 85.300781 C 120.839844 86.101563 116.738281 87.820313 115.441406 87.179688 "/>
<path style=" stroke:none;fill-rule:evenodd;fill:rgb(20.799255%,20.399475%,20.799255%);fill-opacity:1;" d="M 165.191406 83.578125 L 162.960938 83.21875 C 157.269531 78.898438 157.558594 74.859375 156.191406 70.621094 C 155.761719 69.460938 155.761719 69.460938 155.761719 69.460938 L 152.519531 66.730469 C 152.519531 59.101563 146.039063 51.898438 152.949219 44.261719 C 158.351563 41.820313 163.320313 40.378906 168.359375 42.179688 L 172.75 46.058594 L 173.039063 47.859375 L 174.839844 52.328125 L 175.269531 54.421875 C 175.558594 54.78125 175.558594 54.78125 175.558594 54.78125 L 178.441406 56.578125 L 178.441406 40.660156 C 178.871094 40.378906 178.871094 40.378906 178.871094 40.378906 C 183.839844 32.53125 191.761719 35.699219 197.949219 33.898438 L 200.46875 34.621094 L 201.839844 36.128906 L 202.269531 38.21875 L 204.71875 41.101563 C 204.359375 41.53125 204.359375 41.53125 204.359375 41.53125 C 204.070313 42.179688 204.070313 42.179688 204.070313 42.179688 L 200.46875 43.621094 L 195.359375 44.699219 C 195.070313 44.261719 195.070313 44.261719 195.070313 44.261719 L 196.148438 40.019531 L 185.640625 39.730469 C 185.351563 40.019531 185.351563 40.019531 185.351563 40.019531 C 184.558594 40.378906 184.558594 40.378906 184.558594 40.378906 C 184.558594 50.820313 184.558594 61.328125 189.671875 71.699219 L 197.160156 72.78125 C 197.519531 72.421875 197.519531 72.421875 197.519531 72.421875 L 198.960938 71.699219 L 199.320313 67.660156 C 199.75 67.378906 199.75 67.378906 199.75 67.378906 C 200.039063 66.730469 200.039063 66.730469 200.039063 66.730469 C 200.761719 66.300781 200.761719 66.300781 200.761719 66.300781 L 202.558594 65.859375 L 205.078125 67.660156 L 206.878906 69.460938 L 206.878906 71.261719 C 201.839844 75.730469 197.160156 78.898438 192.191406 78.179688 L 184.558594 75.730469 L 182.761719 73.058594 C 182.46875 73.5 182.46875 73.5 182.46875 73.5 L 181.75 76.660156 C 178.441406 83.859375 171.238281 82.5 166.269531 83.859375 L 165.191406 83.578125 "/>
<path style=" stroke:none;fill-rule:evenodd;fill:rgb(90.99884%,60.398865%,58.799744%);fill-opacity:1;" d="M 168.070313 78.460938 L 166.269531 77.820313 L 162.671875 73.929688 L 160.871094 67.019531 C 157.558594 60.460938 154.75 54.128906 155.039063 47.578125 L 156.839844 45.421875 L 165.839844 46.5 L 167.351563 48.300781 L 169.441406 54.78125 L 169.871094 58.660156 L 167.351563 61.621094 L 167.351563 62.699219 L 170.519531 63.78125 L 171.671875 63.421875 L 174.191406 67.019531 L 175.269531 72.128906 L 175.988281 74.21875 L 176.351563 75.730469 C 175.988281 76.019531 175.988281 76.019531 175.988281 76.019531 L 168.789063 78.898438 L 168.070313 78.460938 "/>
<path style=" stroke:none;fill-rule:evenodd;fill:rgb(20.799255%,20.399475%,20.799255%);fill-opacity:1;" d="M 249.359375 77.101563 L 248.28125 76.019531 C 248.28125 75.730469 248.28125 75.730469 248.28125 75.730469 L 251.449219 63.78125 L 253.320313 59.53125 L 258.359375 49.378906 L 256.199219 45.421875 L 256.558594 43.621094 C 260.449219 42.898438 263.761719 43.621094 267.359375 46.058594 C 267.71875 46.929688 267.71875 46.929688 267.71875 46.929688 L 268.078125 48.730469 L 264.769531 50.101563 C 262.679688 51.179688 262.320313 53.699219 261.601563 55.058594 L 255.769531 69.179688 L 254.398438 70.980469 L 253.679688 73.058594 L 250.078125 77.53125 L 249.359375 77.101563 "/>
<path style=" stroke:none;fill-rule:evenodd;fill:rgb(90.99884%,60.398865%,58.799744%);fill-opacity:1;" d="M 179.160156 65.21875 L 178.871094 61.980469 C 178.441406 61.621094 178.441406 61.621094 178.441406 61.621094 C 178.871094 60.898438 178.871094 60.898438 178.871094 60.898438 L 179.949219 65.21875 L 179.160156 65.21875 "/>
<path style=" stroke:none;fill-rule:evenodd;fill:rgb(20.799255%,20.399475%,20.799255%);fill-opacity:1;" d="M 210.769531 59.53125 C 209.261719 58.878906 207.308594 57.660156 206.449219 56.21875 C 204.140625 47.648438 213.5 43.691406 218.539063 52.328125 C 219.410156 54.558594 217.96875 56.941406 216.378906 57.871094 C 215.089844 59.238281 212.929688 59.460938 210.769531 59.53125 "/>
<path style=" stroke:none;fill-rule:evenodd;fill:rgb(90.99884%,60.398865%,58.799744%);fill-opacity:1;" d="M 211.488281 54.78125 C 211.199219 54.199219 210.410156 53.550781 210.980469 52.691406 C 211.339844 52.179688 212.140625 51.539063 213 51.460938 C 214.078125 52.539063 213.71875 52.761719 213.71875 54.128906 C 213.140625 54.78125 212.351563 54.78125 211.488281 54.78125 "/>
<path style="fill:none;stroke-width:3.6;stroke-linecap:square;stroke-linejoin:miter;stroke:rgb(29.399109%,68.598938%,33.299255%);stroke-opacity:1;stroke-miterlimit:11.4737;" d="M 1824.6875 2102.1875 L 1824.6875 2133.90625 " transform="matrix(0.1,0,0,-0.1,0,418)"/>
<path style=" stroke:none;fill-rule:evenodd;fill:rgb(90.99884%,60.398865%,58.799744%);fill-opacity:1;" d="M 385.078125 327.660156 L 381.769531 327.660156 C 369.171875 325.5 362.328125 324.628906 348.648438 324.628906 C 348.359375 324.199219 347.570313 322.898438 347.570313 322.898438 L 345.410156 320.738281 L 341.449219 318.21875 L 338.140625 314.621094 L 337.488281 309.660156 L 336.050781 308.140625 C 332.738281 304.539063 328.851563 307.859375 325.25 303.539063 L 320.570313 300.21875 C 315.171875 297.699219 310.058594 296.339844 304.660156 297.699219 C 297.171875 303.820313 290.261719 306.339844 283.488281 304.261719 C 282.410156 303.820313 282.410156 303.820313 282.410156 303.820313 L 280.609375 302.019531 L 280.609375 298.421875 L 284.140625 294.820313 L 287.449219 293.738281 L 289.609375 293.460938 L 291.050781 292.738281 L 297.171875 290.5 L 299.261719 289.859375 L 314.449219 288.058594 L 315.890625 288.699219 L 319.488281 288.699219 C 333.890625 287.621094 348.289063 289.140625 362.691406 292.300781 L 365.859375 294.539063 L 368.089844 306.699219 L 370.96875 310.300781 L 371.691406 311.019531 L 374.140625 314.621094 C 375.289063 316.421875 377.449219 319.300781 379.96875 320.019531 L 383.570313 324.339844 L 384.648438 325.140625 L 385.371094 327.660156 L 385.078125 327.660156 "/>
<path style=" stroke:none;fill-rule:evenodd;fill:rgb(90.99884%,60.398865%,58.799744%);fill-opacity:1;" d="M 139.988281 329.738281 L 138.550781 329.019531 L 136.75 328.300781 L 132.789063 326.140625 L 124.871094 321.820313 L 124.871094 320.738281 C 125.160156 320.460938 125.160156 320.460938 125.160156 320.460938 L 126.671875 320.460938 L 129.191406 320.738281 L 132.789063 323.621094 L 134.949219 323.621094 L 141.359375 324.339844 C 141.789063 324.058594 141.789063 324.058594 141.789063 324.058594 L 143.160156 323.339844 L 143.519531 319.738281 C 143.160156 319.300781 143.160156 319.300781 143.160156 319.300781 L 141.359375 318.941406 L 139.558594 320.738281 L 123.359375 314.339844 L 122.351563 313.261719 L 121.988281 310.738281 L 123.359375 308.941406 C 130.269531 308.140625 136.75 312.101563 143.519531 318.21875 L 145.320313 323.339844 L 144.238281 325.140625 L 143.949219 327.941406 L 141.789063 329.738281 L 139.988281 329.738281 "/>
<path style=" stroke:none;fill-rule:evenodd;fill:rgb(92.89856%,10.998535%,14.099121%);fill-opacity:1;" d="M 101.761719 309.21875 C 91.539063 304.46875 97.730469 300.300781 103.988281 291.660156 C 103.988281 268.179688 141.140625 298.210938 102.550781 309.21875 L 101.761719 309.21875 "/>
<path style=" stroke:none;fill-rule:evenodd;fill:rgb(92.89856%,10.998535%,14.099121%);fill-opacity:1;" d="M 293.28125 266.019531 C 287.449219 262.859375 278.449219 258.820313 270.960938 259.898438 C 267 258.101563 265.558594 255.21875 263.761719 252.339844 L 262.320313 249.101563 L 262.320313 242.339844 L 270.171875 231.101563 L 280.679688 221.019531 L 282.480469 218.5 L 288.171875 212.460938 L 288.960938 211.019531 L 289.96875 211.019531 L 286.371094 219.660156 L 282.121094 225.058594 C 282.121094 233.339844 275.570313 240.820313 277.800781 248.738281 C 282.480469 255.660156 289.320313 259.261719 295.078125 263.941406 L 296.449219 264.941406 C 296.449219 265.300781 296.449219 265.300781 296.449219 265.300781 L 294 266.019531 L 293.28125 266.019531 "/>
<path style=" stroke:none;fill-rule:evenodd;fill:rgb(90.99884%,60.398865%,58.799744%);fill-opacity:1;" d="M 86.351563 160.980469 C 87.289063 147.148438 109.820313 139.589844 107.949219 152.261719 C 99.738281 153.628906 91.460938 160.980469 86.351563 160.980469 "/>
<path style=" stroke:none;fill-rule:evenodd;fill:rgb(93.299866%,20.399475%,19.999695%);fill-opacity:1;" d="M 214.578125 112.378906 C 213.070313 101.578125 213.859375 103.019531 205.941406 95.101563 C 208.820313 81.058594 212.570313 82.28125 226.25 80.699219 C 223.800781 84.730469 217.96875 85.660156 215.449219 90.78125 L 216.601563 94.019531 L 219.121094 96.179688 L 216.601563 98.699219 C 216.601563 99.628906 216.601563 100.640625 216.601563 101.578125 C 221.351563 103.300781 220.628906 102.511719 222.289063 106.980469 C 221.28125 109.140625 217.320313 113.460938 214.578125 112.378906 "/>
<path style=" stroke:none;fill-rule:evenodd;fill:rgb(90.99884%,60.398865%,58.799744%);fill-opacity:1;" d="M 117.738281 78.320313 C 118.609375 78.320313 119.261719 79.261719 119.261719 80.480469 C 119.261719 81.699219 118.609375 82.640625 117.738281 82.640625 C 116.878906 82.640625 116.230469 81.699219 116.230469 80.480469 C 116.230469 79.261719 116.878906 78.320313 117.738281 78.320313 "/>
<path style="fill:none;stroke-width:2.2;stroke-linecap:butt;stroke-linejoin:miter;stroke:rgb(13.699341%,12.199402%,12.5%);stroke-opacity:1;stroke-miterlimit:11.4737;" d="M 1177.382813 3396.796875 C 1186.09375 3396.796875 1192.617188 3387.382813 1192.617188 3375.195313 C 1192.617188 3363.007813 1186.09375 3353.59375 1177.382813 3353.59375 C 1168.789063 3353.59375 1162.304688 3363.007813 1162.304688 3375.195313 C 1162.304688 3387.382813 1168.789063 3396.796875 1177.382813 3396.796875 Z M 1177.382813 3396.796875 " transform="matrix(0.1,0,0,-0.1,0,418)"/>
<path style=" stroke:none;fill-rule:evenodd;fill:rgb(92.89856%,10.998535%,14.099121%);fill-opacity:1;" d="M 269.449219 320.738281 C 265.628906 320.460938 262.03125 316.140625 258.789063 312.820313 C 258.070313 312.539063 258.070313 312.539063 258.070313 312.539063 C 252.238281 310.738281 252.238281 305.339844 251.949219 301.738281 C 249.070313 295.261719 243.671875 294.820313 239.640625 294.539063 L 235.03125 289.859375 L 235.75 286.261719 L 236.828125 285.101563 L 242.230469 285.820313 L 244.03125 288.058594 L 245.46875 289.421875 C 251.230469 291.21875 261.671875 288.699219 264.550781 297.339844 L 265.628906 302.019531 L 269.449219 312.539063 L 272.398438 316.859375 L 272.761719 319.300781 C 272.398438 319.738281 272.398438 319.738281 272.398438 319.738281 L 270.171875 320.738281 L 269.449219 320.738281 "/>
</g>
</svg>
